<?xml version="1.0" encoding="UTF-8"?>
<svg id="Ebene_1" xmlns="http://www.w3.org/2000/svg" version="1.1" viewBox="0 0 595.3 255.1">
  <!-- Generator: Adobe Illustrator 29.3.0, SVG Export Plug-In . SVG Version: 2.1.0 Build 146)  -->
  <defs>
    <style>
      .st0 {
        font-size: 87.2px;
      }

      .st0, .st1, .st2 {
        font-family: TwentiethCenturyforKenmoreN-Bold, 'Twentieth Century for Kenmore N';
        font-weight: 700;
      }

      .st1 {
        font-size: 199.9px;
      }

      .st2 {
        font-size: 30.1px;
      }

      .st3 {
        fill: #fff;
        stroke: #fff;
        stroke-miterlimit: 10;
        stroke-width: 10px;
      }
    </style>
  </defs>
  <g>
    <rect x="34.9" y="140.1" width="453" height="8.3"/>
    <path class="st3" d="M83.1,162c1.9,1.2,3.9,2.2,6.1,2.9,2.1.7,4.4,1.1,6.7,1.1s4-.3,5.8-1c1.7-.7,3.3-1.6,4.5-2.8,1.3-1.2,2.2-2.7,3-4.3.7-1.7,1.1-3.5,1.1-5.6s-.3-3.5-1-4.9c-.7-1.4-1.5-2.7-2.6-3.8-1.1-1.1-2.4-2.1-3.8-2.9-1.5-.8-2.9-1.6-4.5-2.2-2.8-1.2-6-2.5-9.6-3.7-4.5-1.6-8.6-3.4-12.2-5.6-3.7-2.2-6.8-4.8-9.4-7.8-2.6-3-4.6-6.4-5.9-10.2-1.4-3.8-2.1-8.1-2.1-12.8s1.1-11.4,3.2-16.1c2.1-4.7,5-8.8,8.7-12.1,3.7-3.3,8-5.8,12.9-7.6,5-1.8,10.3-2.6,16-2.6s13.5,1.1,19.4,3.4c5.9,2.3,11.5,5.6,16.9,10l-17.4,18.8c-2.9-2.1-6-3.9-9.3-5.6-3.3-1.6-6.8-2.4-10.5-2.4s-6.5,1.1-8.5,3.3c-1.9,2.2-2.9,5-2.9,8.5s.6,4.1,1.8,5.8c1.2,1.7,2.7,3.3,4.4,4.6,1.7,1.3,3.6,2.5,5.6,3.5,2,1,3.9,1.8,5.6,2.4,5.1,2,9.8,4.1,14,6.4,4.3,2.3,7.9,5,11,8.1,3.1,3.1,5.4,6.7,7.1,10.9,1.7,4.2,2.5,9.1,2.5,14.8s-1.2,12-3.7,17.1c-2.5,5.1-5.8,9.4-10,12.9-4.2,3.5-9,6.3-14.5,8.2-5.5,1.9-11.2,2.8-17.2,2.8s-7.9-.5-11.5-1.5c-3.6-1-7-2.3-10.3-4.1-3.3-1.7-6.4-3.7-9.4-6-3-2.3-5.9-4.7-8.8-7.3"/>
    <text class="st0" transform="translate(139.5 136.1) scale(1 1)"><tspan x="0" y="0">ilberhorn</tspan></text>
    <text class="st2" transform="translate(144.7 180) scale(.9 1)"><tspan x="0" y="0">Container- &amp; Krantransporte GmbH</tspan></text>
    <text class="st1" transform="translate(49.6 189.4) scale(1 1)"><tspan x="0" y="0">S</tspan></text>
  </g>
  <g>
    <path d="M103.4,147c-.8-.8-1.7-1.5-2.8-2.1-1.3-.7-2.6-1.4-3.9-2-2.1-.9-4.5-1.9-7.2-2.8h-54.3v8.3h69.2c-.3-.5-.7-1-1.1-1.4Z"/>
    <path d="M143.5,140.1c.7,2.6,1.1,5.4,1.3,8.3h343.5v-8.3H143.5Z"/>
  </g>
</svg>