<?xml version="1.0" encoding="UTF-8"?>
<svg id="Ebene_1" xmlns="http://www.w3.org/2000/svg" version="1.1" viewBox="0 0 163.6 163.6">
  <!-- Generator: Adobe Illustrator 29.2.1, SVG Export Plug-In . SVG Version: 2.1.0 Build 116)  -->
  <defs>
    <style>
      .st0 {
        fill: #141e2b;
      }
    </style>
  </defs>
  <path class="st0" d="M147.6,157.3h-2.9c-1.9-.6-3.8-1.2-5.3-2.5l-57.8-57.5-57.4,57.4c-1.5,1.4-3.5,2.1-5.5,2.6h-3.2c-4.8-1-8.1-4.4-9.1-9.1v-3.2c.6-1.9,1.2-3.8,2.5-5.3l57.5-57.8L9,24.4c-1.4-1.5-2.1-3.5-2.6-5.5,0-1-.1-2.2,0-3.2,1-7.8,11-11.9,17.2-7l58.3,57.9,57.9-57.8c10.4-7.4,22.6,5,15,15.3l-57.6,57.7,58,58.5c4.7,6.5.4,15.9-7.4,17Z"/>
</svg>