<?xml version="1.0" encoding="UTF-8"?>
<svg id="Ebene_1" data-name="Ebene 1" xmlns="http://www.w3.org/2000/svg" viewBox="0 0 159.44 215.58">
  <path id="Bayern" d="M105.91,127.95l.25.05.18.17.69.71v.11l-.07.46-.08.47.11.08.31.05,1.2.35.53.2.13.17.4.39.32.71-.02.05v.03l-.21.15-.25.06-.11.11-.26.32.04.08.34.31.88.47.07.06.3.32.38.46.27.56-.02.1-.05.16-.18.18-.09.26v.14l.05.42.07.34.02.05.15.17h.02l.19-.05.14.04.27.21.41.43-.08.55,1.04.16.89.9,1.11.65h.45l.27.05.38.21.17.24.75,1.3-.02.94-.08.07-.16.19-.6,1.12-.16.47-.08.9-.04.18-1.14.79v.13l.1.37.13.2.51.72.05.05.06.03.13.03,1.2.34.05.02.11.44.21,1.43.74,1.59.26.37.11.09-.09.11.25.16.33.12h.14l.03-.1.03-.03h.08l.08.13.02.06.04.37.03.57v.18l-.18.22.46.69,1.84,1.46.08.34-.05.2.4.74.13.07.3.09,1.35.2h.18l.04-.03-.05-.15-.1-.12-.02-.19.15-.02.23.03.79.13.08.02.42.23.55.52.55.71,1.57,2.09.24.32.45.4.25.2.07.03h.09l.02.81.24.25.29.2.23.13.47.19.17-.05.19-.08.37-.09h.11l.13.05.66.47.37.29.86.96.15.23.18.61.27,1.15.29.2,1.18.79h.05l.17-.03v-.24l-.05-.11-.02-.14v-.24l.41-.15.92.04.08.05.05.04.68.75.28.36.2.47.18.39.31.35.09.04h.23l.5-.03.08-.04.11-.11h.16l1.55,2.29.35.72-.16.6-.18.57-.24.43.35.61.31,1.54v.44l-.35,1.22-1.23,1.74-.06.04-.39-.1-.78-.41-.07-.06-1.35-.85-1.44-.55-.1.44-.05.09-.21.23-.29.24-.13.06-.53.17.2.25.02.03.19.72v.05l-.35,1.05-.07.14-.07.27v.15l.22.34.04.13v.08l-.02.1-.34,1.34-.05.13-.04.07-.07.07-1.36,1.4-.14.11-1.06.7-.1.05-.13.02-1.34.02-.75.43-.14.06-.2.04h-.49s-.15.02-.15.02l-1.06.57-.09.06-.09.09-.05.08-.09.2-.06.1-.62.72-.1.08-.1.06-.11.05-.09.02-.5.03-.77.13-.06.02-.08.05-.06.08v.05l-.02.18-.02.08-.26.55-.24.29-.05.06-.58.46-.7.57-.14.17-.03.05v.07l.07.49.06.21.08.19.17.22.77.64.54.44.22.22.11.14.08.14.02.07.25.98.06.12.07.07.64.12.13.06.06.05.25.35.61.95.75,1.36.05.13.02.12-.02.08-.69,1.23-1.01,2.01v.05l.02.06.15.16.23.17.9.07.26-.02.08-.04.19-.14.04-.05.02-.05-.02-.03.06-.12.04-.02h.13l.53.25.07.05.39.5.58,1.41.03.12-.05.2-.08.09-.35.41-.5.77-.03.19-.15,1.19v.04l.04.05.08.07.09.03.08.06.02.07.04.61v.2l-.73.8-.05.03h-.05l-.71-.3-.22-.1-.79-.44-2.06-1.4-.18-.18-.21-.32-.09-.28.03-.1.19-.51.26-.28-.72-1.5-.4-.12-1.04-.29h-.33l-.22.06-1.06.23-.08.02-.14.2-.24.52-1.3.66h-.25l-.65-.65-.48-.66-.03-.07-1.41-.15-.48-.18-.06-.05.04-.13-1.29.49-.31-.96.1-.17.12-.29-.04-.13-.12-.16-.14.05-1.16,1.13-.04.93.31.68.08.27.13.52v.06l-.02.07-.03.05-.04.03-.37.08-1-.03-.87-.09-.41-.24-.76.21-.97-.12-1.05.14-.87.34-.31.55-.06.04-.27-.02-.75-.14h-2.62l-.31-.07-.48.31-.03.04-.31.66-.03.3v.11l.04.07v.38l-.27.31-.06.03-1.18.27-.93-.09-.18-.05-.13-.16-.06.03-.06.05-.37.42-.05.1-.46.53-1.47,1.3-.15.27-.05.1-.09.27-.11.14-.21.13-.05.02-.78.08h-.06l-.05-.06.03-.12.29-.51.24-.23-.05-.1-.04-.03-.81-.02-.92.36-.1.05-.35.2-.93.46-1.42.07h-.18l-.32-.07-.17-.08-.03-.33.04-.13.02-.03.16-.03.08-.07-.03-.25-.43-.5-.62-.64-.88-.19h-.06l-.13-.07-.04-.11v-.37l.14-.12.53-.4-.37-.53-.59.07-1.04.41-.63-.13-1.31-.53-.06-.17v-.13l-.02-.07-1.36-.22-.33-.03-.22.25-.13.25v.05l-.16.39h-.08l-.83-.03-.66-.13-.53-.34-.13-.09.12-.17.17-.2.06-.27v-.22h-.08l-.59.09h-.04l-.1.19.03,2.03.18.47.04.05.05.02.11-.04.18.09.13.15.02.21.09,1.05-1.07,1.44-1.3,1.66-.4.39-.8.49-.74.27-1.2.22h-.08l-.03-.11v-.14l.05-.24.06-.21.7-1.63.17-.22.2-.28v-.26l-.13-.18-.04-.02-.85-.09-.23.18v.39l-.07.07-1.23.39-.42-1.35.15-.29.16-.07.03-.03.19-.3-.24-.42-.23-.31-.51-.58-.55-.22-.24.06h-.18l-.11-.13-.57-.97v-.47l.06-.22-.06.05-.59.32-.2.08-.9.03-1.09-.52v-.06l.03-.1.03-.03h.04l.05-.07.05-.08.03-.51-.07-.23-.39-.24h-.48s-.22.18-.22.18l-.17.25-.67.92-1.02-.32-.86-.36-.24-.15-.09-.23.71-.54.33-.23.63.05v.1l.04.06.07.05.11.04.84-.04,1.48-1.51.02-.03,1.28-.07,1.47-.02.08-.14.28-.35.06-.06.04-.02.36-.06.7.13h0l.09.16v.03l.24.95-.02-.08.11-.31.1-.12.17-.21.12-.07.19.04h.05l.3-.28.18-.6v-.16l-.68-1.68-.04-.97h.27l.36-.33-.07-.21-.12-.08-.14-.17-.14-.29-.13-.68-.04-.93v-.2l.06-.48.1-.38-.22-.14-.09-.07-.07-.07-.06-.11-.04-.16v-.15l.04-.13.04-.06.05-.05.07-.04.19-.04.18-.04.02-.28.06-.5.11-.18.15-.15.04-.18.07-.65v-.8l-.06-.91-.22-.2-.23-.25-.02-.04-.07-.17-.23-.75v-.13l-.08-.18-.09-.47-.04-.21-.33-2.38-.26-.25-.77-1.21-.22-.41-.11-.54.4-.95.04-.06.33-.6.08-.46-.04-.19-.08-.13.43-.03.89-.5.25.2.31.36.62-.13,1.28-1.12-.05-.15-.06-.14.42-.22.06-.03.13-.02.25.11h.16l.18-.02.29-.17.02-1.05v-.16l-.27-1.54-.35-.48-.31-.44-.15-.22v-.36l.03-.06.23-.66,1.09.34.17.05,1.28-.28.43-.02.09.07.04.05v.08l-.25.58-.12.08-.03.05v.06h.29l.59-.2.39-.44.09-.12-.08-.17h-.06l-.17-.16-.18-.69-.02-.23-.68-.22h-.06l-.07-.87.19-.08.33-.84v-.02l.1-1.38.03-1.66-.1-.5-.13-.17-.02-.03-.35-.36-.19-.53-.04-.09-1.64-1.19-1.12-.48-.04-.28v-.19h.04l.11-.05-.36-1.79-.56-1.01-.46-.19-.4-.21-.7-.47-.08-.09v-.05l.05-1.67.26-.73-.14-.23-.53-1.17-.03-.09v-.08l.07-.95.08-.17.61-.02.18-.08.07-.13.02-.06-.17-.45-.31-.61-.31-1.05-.04-.02-.27-.35v-.22l.06-.13.11-.1-.08-.36-.22-.48-.18-.3-.3-.06-.09.03-.41.39v.02l.05.09.18.16.17.04-.14.25-.05.06-.58.65-.1.03-1.09.07-.41-.1-.05-.03-.22-.22.04-.18.11-.12.05-.11v-.03l.05-1.13-.04-.29v-.03l-.2-.6-.03-.07-.07-.02h-.13l-.08.03-.46-.73-.06-.27-.64-2.25-.19-.19-.46-.45-.3.1-1.13.39-.71.41-.24.11-.14.02-.39-.21-.13-.2.1-.37.03-.02.15-.07.02-.08.17-1.61-.04-.26-.33.15-1.15,1.11-.04.02h-.06l-.07-.03-.69-.45-.08-.06-.06-.11-.02-.06v-.1l.06-.16v-.07l-.02-.05-.08-.07-.06-.05-.06-.02-.35.04-.05.04-.11.14-.18.28-.33-.14-1.5.07-.61.07h-.12l-.07.05-.03.06v.15l.13.5.4.68.24.36.17.02.2-.02.08-.02v-.44l-.03-.14.09-.15.24.06.28.47.12.45-.19.89.14.13-.06.14-.18.22-.4.07-.63-.2-.8-.12-.34.49-.19.3.15.22.02.06-.65.83-.15.09-.31.1-.16.04-.35.06h-1.38s-.26-.11-.26-.11l-.24-.44.22-1.87.36-1,.13-.06.44-1.16-.31-1.43-.05-.03-.06-.02-.21-.05h-.11l-1.17-1.18-.07-.08-.03-.1-.03-.39v-.17h.05s.25.02.25.02l-.19-.25-.03-.06-.1-.82-.03-.55-.04-.77-.1-.81v-.06l-.11-.13.42-.24-.1-1.05-.04-.07-.08-.07-.04-.02-.14-.04h-.24s-.35-.29-.35-.29l.17-.35.13-.67.2-.32.14-.16.03-.03,3.62-1,2.61.51.08.02.03.03.5,1.16.15.12h.05l.36-.04,1.37-.25.11-.32v-.22l-.12-.28-.06-.33-.18-1.09.09-.92.32-.68.29.1.82.21h.21l.43-.03.03-.03.02-.11.25-.64.19-.34.09-.15.03-.04.46-.16h.21l.19-.08.43-.39.21-.2.12-.22.03-.1.02-.3-.02-.44-.07-.15-.19-.27.18-.17.04-.09.15-.58.09-.43.96-.28.2.16.6.25.41-.05.32-.13.31-.19.33-.26.43-.25.95-1.02.25-.37.13-.36.08-.44v-.2l.06-.02.1-.05.27-.26.49-.54,1.78-.19h.14l.49.66.39.53,1.26.53.15.12.14.14.65,1.38.11.65v.16l.15.2h.05l.5.06.25-.11.24-.12.07.27.08.32.61.67,1.08.4.82.19-.07.75-.09.96.18.77.11.31.05.12.49.12,1.41.52h.07l.05-.03.12-.2-.04-.47-.04-.02v-.52l.08-.06.16.03.65.15.76.17h.08l.19-.04.18-.13.04-.05.06-.16v-.37l-.13-.14-.16-.08-.34-.11-.17-.04-.05-.02-1.49-1.06-.1-.08-.02-.1-.05-.82.06-.25,2.02-.82h1.82s.05,0,.05,0l.15.16.31.55.36.39.96.17h.11l.37-.11.31-.13.1-.31.03-.03.2-.05h.24l.44.37.36.64v.16l-.13.04-.15.11-.09.08-.11.13-.03.16.03.13v.03l.2.27.6.57h.22l.03-.04.25-.51.84-.14.54-1.85v-.02l-.32-2.03-.08-.22-.12-.04-.19-.13-.03-.57v-.06l.04-.17.06-.07.12-.04.12.04.03.04.41-.19.59-.48.06-.2.29-.31.05-.02.42-.06.93.18.07.06.09.13.15.22v.04l-.07.18-.02.03h-.12l-.12.18-.04.42v.57l.03.15.03.05.53.31.47-.06.15.59.18.32.45.5.16.08.51-.16.12-.11v-.06l.05-.21.04-.07.04-.03.35-.07.1.05.08.06.11.13.15.14.08.05h.06l3.35-.46,1.1-.39.71-.32.12.18Z" style="fill: #fffff9; stroke: #141e2b; stroke-linejoin: round; stroke-width: .75px;"/>
  <g>
    <polygon points="48.94 13.64 48.85 13.61 48.67 13.67 48.29 13.61 48.21 13.63 48.16 13.68 48.18 13.72 48.24 13.82 48.29 13.86 48.72 14.18 48.8 14.23 49.03 14.23 49.17 14.19 49.2 14.14 49.2 14.02 49 13.71 48.97 13.67 48.94 13.64" style="fill: #141e2b; stroke: #141e2b; stroke-linejoin: round; stroke-width: .75px;"/>
    <polygon points="45.58 10.22 45.86 9.96 45.84 9.93 45.79 9.92 45.68 9.97 45.03 10.56 44.94 10.67 44.84 10.93 44.83 11.14 44.8 11.27 44.8 11.32 44.88 11.53 45.21 12.06 45.38 12.32 45.58 12.64 45.62 12.65 45.72 12.67 46.02 12.67 46.04 12.67 46.36 12.51 46.39 12.47 46.48 12.27 46.46 12.25 46.44 12.23 46.12 12.07 45.84 11.64 45.5 10.69 45.46 10.5 45.51 10.36 45.58 10.22" style="fill: #141e2b; stroke: #141e2b; stroke-linejoin: round; stroke-width: .75px;"/>
    <polygon points="44.82 9.19 44.85 9.18 44.88 9.14 44.89 9.02 44.95 6.92 44.91 6.86 44.88 6.73 44.88 6.69 44.92 6.28 45.04 5.92 45.1 5.82 45.68 5.46 45.84 5.59 45.87 5.63 46.26 5.86 46.63 6.13 46.76 6.17 46.82 6.17 47.55 5.8 48.02 5.4 48 5.38 47.91 5.36 47.77 5.34 47.19 5.36 47.04 5.34 46.96 5.32 46.47 4.88 46.46 4.88 46.02 4.42 45.91 2.82 46.21 2.22 46.35 2.04 46.61 1.84 46.63 1.83 46.96 1.75 47.3 1.53 47.72 .7 47.71 .69 47.68 .66 47.11 .43 46.96 .38 46.87 .38 46.82 .38 46.68 .47 46.64 .51 46.53 .69 46.02 1.9 45.92 2.16 45.5 3.06 45.2 3.83 44.96 4.53 44.88 4.9 44.81 5.46 44.75 6.09 44.58 8.56 44.58 8.75 44.73 9.09 44.82 9.19" style="fill: #141e2b; stroke: #141e2b; stroke-linejoin: round; stroke-width: .75px;"/>
    <polygon points="50.27 14.59 49.57 14.88 49.48 14.93 49.42 15 49.41 15.07 49.42 15.38 49.45 15.51 49.49 15.6 49.55 15.68 49.59 15.71 49.77 15.97 49.92 16.11 50 16.12 50.18 16.12 50.46 16.06 50.69 16 50.75 15.96 50.85 15.85 51.14 15.19 51.3 14.81 51.33 14.42 51.26 14.39 51.1 14.35 50.95 14.38 50.35 14.56 50.27 14.59" style="fill: #141e2b; stroke: #141e2b; stroke-linejoin: round; stroke-width: .75px;"/>
    <polygon points="49 12.01 48.56 12.18 48.52 12.3 48.53 12.34 48.82 12.56 49.43 12.23 50.42 12 50.54 11.92 50.63 11.8 50.68 11.64 50.73 11.36 50.69 11.34 49 12.01" style="fill: #141e2b; stroke: #141e2b; stroke-linejoin: round; stroke-width: .75px;"/>
    <polygon points="38.01 24.69 38.21 24.7 38.44 24.29 38.42 24.12 38.11 24.15 37.97 24.03 37.85 24.06 37.71 24.17 37.7 24.22 37.93 24.67 38.01 24.69" style="fill: #141e2b; stroke: #141e2b; stroke-linejoin: round; stroke-width: .75px;"/>
    <polygon points="88.32 17.54 88.74 17.81 88.8 17.85 88.92 17.87 88.93 17.86 88.92 17.84 88.91 17.86 88.89 17.86 88.79 17.81 88.53 17.65 88.53 17.48 88.58 17.44 89.2 17.21 89.49 17.3 89.59 17.36 89.7 17.39 89.74 17.46 89.82 17.7 89.79 17.95 89.75 18.29 91.11 18.54 93.21 18.56 93.23 18.55 93.24 18.53 93.23 18.37 92.89 17.64 92.61 17.05 91.76 15.77 90.9 15.31 89.44 15.06 89.32 15.01 89.27 14.97 89.24 14.92 89.2 14.93 89.11 15.01 88.9 15.25 88.74 15.47 88.64 15.64 88.45 16.05 88.36 16.32 88.33 16.42 88.25 17.32 88.28 17.47 88.32 17.54" style="fill: #141e2b; stroke: #141e2b; stroke-linejoin: round; stroke-width: .75px;"/>
    <polygon points="47.63 8.82 47.11 8.93 46.95 8.98 46.84 9.07 46.69 9.22 46.59 9.42 46.44 9.76 46.42 9.97 46.45 10.1 46.49 10.18 46.55 10.22 47.62 10.75 47.84 10.81 48.1 10.82 48.98 10.86 49.09 10.85 49.15 10.84 49.65 9.8 49.49 9.14 49.45 9.07 49.2 8.9 48.91 8.8 48.78 8.77 48.7 8.76 48.51 8.73 48.29 8.81 48.2 8.85 47.76 8.82 47.63 8.82" style="fill: #141e2b; stroke: #141e2b; stroke-linejoin: round; stroke-width: .75px;"/>
    <polygon points="50.76 28.43 50.81 28.46 50.88 28.45 50.96 28.39 51 27.71 50.99 27.7 50.91 27.62 50.84 27.63 50.78 27.67 50.72 27.7 50.66 27.76 50.62 27.81 50.56 27.94 50.53 28.06 50.53 28.17 50.66 28.34 50.76 28.43" style="fill: #141e2b; stroke: #141e2b; stroke-linejoin: round; stroke-width: .75px;"/>
    <polygon points="53.24 16.92 53.45 16.96 54.04 17.03 54.28 17.03 54.63 16.73 54.77 16.55 54.8 16.53 55.2 15.9 55.21 15.86 55.14 15.52 55.06 15.42 54.81 15.36 54.21 15.34 53.86 15.25 53.02 15.8 52.9 15.93 52.9 16.01 52.9 16.7 53.09 16.84 53.24 16.92" style="fill: #141e2b; stroke: #141e2b; stroke-linejoin: round; stroke-width: .75px;"/>
    <path d="M55.79,152.49l-.07.06.43.23.09.07.15.37v.11l-.08.11h0l.07-.1v-.11l-.15-.37-.09-.07-.43-.23.09-.07h0ZM7.34,150.94l-.13-.08-.38-.59v-.03l.02-.05.36-.53.12-.12.06-.03h.14l.07-.04.07-.07.33-.34,1.56-2.53.4-1.38v-.17l-.16-1.13-.53-.35-.39.25h-.43l-.48-.28-.06-.06-.83-.83-1.51-.92-.48-.56-.9-1.5-.12-.26-.09-.21-.31-.78-.41-1.63.08-.81.54-1.93.66-.56-.08-1.14s.05-.36.05-.38l.04-.06,2-1.29.1-.24.32-.67.12-.04.26-.06.59.3.76-.2.39.03-.19-.29-.13-.22-.05-.15-.19-.72-.09-.36.48-.12-.5.12.09.36.19.72.05.14.13.22.19.29-.39-.03.08-.32v-.03l-.13-.24-.66-.77-.03-.54.16-.27.09-.21.15-.67.02-.19-.02-.3-.05-.12-.46-.78-.13-.2-.3-.19-.05-.07-.07-.06-.68-.12h-.32l-.03.02-.14.1s-.26.11-.28.12h-.03l-.53-.76-.08-.15-.13-.42-.02-.41.02-.07.89-.83.21-.97-.93-.24-.24-.31.04-.02.3-.12-.21-.2-.13-.18-.27-.44-.07-.14-.03-.12-.36-.92-.09-.08-.05-.03-1.19-.67-.72-1.19.44-1.39.06-.2.27-.11.28-.08h.11l.02.08.28.14.29-.69-.03-.2-.08-.1-.07-.14-.02-.14.12-.4.02-.05.1-.1.03-.07v-.1l-.2-.09-.36-.15-.65-.23-.03-.37.02-.38.16-.33.08-.23v-.03l-.15-.02-1.05-.09-.68.16-.24-.28-.38-.84-.17-.81s0-.14,0-.16l.82-.36,1.68-.54,2.12-1.42.27-.77.64-.27.11-.05-.26-.23-.29.11-.46.2-.13.09-.03.05-.05.05-.1.04-.09.03h-.17l-.13-.04-.15-.29-.02-.87.32-.93,1.94-2.44.63-.68-.27-.96.17-.86.14-.43.09-.6v-.18l-.13-1.07-.18-.37-.69-1.14-.19-.13-.88-1.01.06-.29-.04-1.21-.86-.4-.1-.12v-.03l-.52-1.68-.4-1.89.41-.67,1.19-.53.59.03,1.31-.18.52-.34,1.33.06h.07l.19.11.18.12.8.52.52.45.34.2.12.02-.29-.95v-.08l.06-.25h.05l.57.25h1.3l.25-.12.4-.21.78-.3,1.55-.53.17-.04.13.08.08.14s.39.39.4.39l.18-.06.33-.22.33-.23.34-.36.71-.92.07-.17v-.06l-.02-.37-.05-.21-1.21-1.03-.64-.34.4-.94.41-.66,1.53-.49.15-.02.21-.2.1-.11.11-.44.04-.22.49-.53,2.06-1.29.68-.4-.37-.42-.16-.44-.04-.21-.04-.23v-.13l.39-.84.18-.39.29-.38.03-.57-.13-.5-1.09-2.1-.02-.04-.07-.06-.17.11-.15.28-.14.3-.27.18-.09.03-2.79-.79-.36-.13-.9-.65v-.08l.11-.53.06-.33.21-.78.11-1.1-.12-1.08.57-.47.28-.09.43-.07h.12l1.76.11,1.42.24.34.12s.05.06.05.08l.1.06s.47.13.49.12l.06-.06.16-.22.22-1.94.11-1.1.15-1.55.29-1.08.57-.77,1.11-1.68.37-1.13.15-.48.06-.31-.14-1.87.08-.93-.31-.25-.04-.22v-.23l.22-.64.21-.38.24-.55.1-1.47.3-1.28.18-.57.02-.07.03-.03.14-.05h.77l-.1-.04-.61-.17-.33-.08-.23-.04-.83-.07-1.88-.06-.55-.08-.11-.06-.08-.1-.2-.37-.05-.14.02-.08.26-.45.04-.7.42-3.43.9.41.26.37.52-.52.29-.31-.27-.48-.18-.11-.44-.3-.14-.18.08-.24,1.23-1.28.33-.32.73-.53.3-.21.75-.27.36-.08.33-.04.44-.04,2.01.16.09.03.16.09.04.05.14.09.19.1h.13l.47-.09,1.06-.34,1.13-.32.11-.02.16-.02h.12v.05l.15.04h.31l.33-.02.85-.26,1.66-.15.86.09.77.12.26.13.06.08v.13l-.03.06-.12.17-.03.2.09.61.06.23.14.37.77.11.08.09.14.21.15.3s.9,2.12.9,2.14v.09l-.04.1-.07.24-.08.16-.24.13-.24.09-.58.21-.11.03h-.25l-.27-.22.02.55.03.25.03.14.06.18.08.18.16.22.21.23.11-.04.22-.15h.05l.24-.02.19.05.27.34.33.47.17.27v.09l.06.11.04.04.17.07.29.07.21.03h.1l.17-.1.14-.1.05-.05.18-.2.15-.22.13-.22.2-.47.09-.21.03-.21.06-1-.02-.42-.02-.06-.06-.13-.04-.05-.12-.07-.42.16-.15.04-.57-.11.13-1.12.07-.45.02-.08.11-.24.09-.13.25-.25.25-.2.35-.13.32.03.38.25.12.17.2.38.25.37.3.16,1,.45h.3l.38.06.2.03.52.32.03.04.03.07s.04.26.04.28c0,0-.05.05-.06.05l.07-.05.05-.12.02-.07v-.21l-.03-.09-.03-.08-.58-1.01-.23-.36.26-.32-.25-.59-.31-.81v-.88l.02-.18,1.01-3.05.14-.37.28-.7.59-.77.23-.21.49-.14.35-.09.3-.02v.23l.04.08.39.48.76.56.26.18.17.08.2.05.42.05,1.36.11.44-.09s.08-.03.09-.05v-.04l.08-.03.56-.12h.14l.58.15-.13-.17-.21-.53-.11-.33.22-.1.24-.08.23-.04h.27l.86.05h1.54l.51.07.95.41s.48.34.47.33l-.48-.35-.95-.41-.51-.07h-1.54l-.86-.06h-.27l-.23.05-.07-.7h-.05l-.4.21-.08.03h-.13l-.1-.04-.28-.23-.51-.42-.25-.36-.17-.46-.09-.3-.36-.86-.56-.89h-.18v-.06l.39-.34.31-.18.26-.05.67.16.13.09.12.13.18.03.23-.06.14-.06.07-.05.07-.08.06-.1.04-.15.05-.18v-.15l-.04-.1-.87-1.79-.06-.08-.18-.06h-.07l-.26.04-.11.07-.34.22-.14-.09-.29-.19-.04-.05-.14-.27-.28-.75-.03-.13v-.05l.07-.16.29-.6.17-.37.03-.11.08-.94v-.24s-.05,0-.05,0l.05-.05v-.08l-.02-.16-.03-.11-.07-.14-.1-.13-.05-.03-.08-.02h-1.23l-.65.06-.27.27s-.17.2-.15.22l.13.03h.07v.03l-.05.03-.04.02h-.21l-1.19-.63-.15-.1-.15-.28-.03-.14v-.2l.08-.39.06-.22.09-.24.05-.1.03-.03.25-.13.02.24.33.24h.15l.05-.03.7-.43.03-.03.02-.06v-.3l-.02-.15.14-.65,1.78-.31.35.04.37.18.29-.08.34-.15.29-.15,1.47-1.24.04-.04.17-.29.05-.3v-.09l-.06-.21-.34-.75-1.72-2.45-.8-1.14-.31-.19-.49-.23-.31-.31-.09-.12-.59-1.54-.21-1.02-.23-.49-.03-.04-.61-.72-.57-.63v-.05l.1-.97.4-.9h.49l.18.03.11.05.32.22,1.46-.08.19-.03.2-.02h.14l1.1.08.73.06.15.05.07.03.83.39.24.17v.06l.11.07.19.11.24.03.44.03.35-.09h.36l.11.02.19.06.79.33.56.26.07.17-.1.13-.06.1v.11l.05.12.18.48,1.26.13.27-.03.39-.35.05-.05.02-.17.7-.14.29.13.36-.15.36-.1.25-.12,1.38-1.23.13-.03.58.21-.11.18-.28.51,1.15.47.89.36,1.59,1.8.27.14.24.07s.14.01.16.01l.03-.03.43-.93-.02-.06.05-.13.05-.08.03-.02.28.18.47.31.29.53.91,2.85-.02.58-.05.82v1.45l-.02.12-.45.77-.05.07-.17.2-.28.24-.43.25-.69.36-.47.23-.11.03-.06-.05-.05-.06h-.26s-.07.05-.07.05l-.03.04.19.38.07.13.1.11.13.08.07.02.54-.08.18-.04.08-.05s.51-.22.51-.24l.2-.07,1.37-.33,1.03-.2.1-.02h.14l.13.02.4.26.18.14.38.38-.13.21-.28.42.05.16.2,1.01-.33.28-.15.3-.03.16.36.48.09-.33.62-1.36.13-.14,1.23-.61.28-.05h.15l.17.02.32.09.46.13,3.34,1.67.19.11.4.26.1.09.13.2s.06.14.05.15l.03.08.55.59.11.09.06.04.15.04h.17l.72-.03h.11l.14-.06.2-.08.14-.08.5-.4.19-.2.31-.37.47-.42.68-.52.32-.08,2.19-.1-.07.96-.13.22-.02.08.04.62.16,1.81.2,1.52v.03l-.03.02-.7.57-.18.13-.87.61-.79.74-.7.88-.12.1-.13.08-.13.05-.6-.11-.08-.02-.13-.09-.85.9-.07.07-.05.09-.05.16-.02.13v.08l.03.14.19.45.16.3.1.16.11.14.06.06.14.09.12.02h.57l.24-.07h.09l.14.07.11.09.08.11.05.14v.05l-.04.28.03.21.14.06h.08l.11.02,1.23-.83.79-.47.27-.12.12-.03.59-.14h.18l1.33-.08.08.05.1.1.9,1.02-.06.51v.15l.1.22.16.15.16.08.15.05h.15l.04-.03.32-.22.12-.09.05-.07.44-.1c2.35-1.85,5.55-3.1,7.89-4.94.89,1.94,3.91,1.89,5.42.39,1.46-1.45,2.04-3.85,3.93-4.68,1.94-.85,4.07.43,5.96,1.38.55.28,1.13.53,1.75.56,1.87.06,3.05-1.89,4.24-3.34,1.66-2.01,4.06-3.39,6.63-3.81-.25,1.74-.86,3.42-1.78,4.91.38.79,1.57.13,2.13-.55s1.83-1.25,2.11-.41c.15.45-.22.9-.32,1.36-.17.81.51,1.53,1.19,1.99s1.49.87,1.8,1.63-.39,1.88-1.14,1.55c-.36-1.45-2.37-2.06-3.63-1.25s-1.62,2.62-1.04,4c.99,2.35,4.32,3.15,6.82,3.67l.55.41.42.39.1.05,1.82.65.36.12.28.04.91.02h.09l.06-.04.29-.26.23-.25.11-.16.04-.04h.12l.18.04.1.04.22.2.11.31.29,1.53.53,1.71.1,1.02-.11.76v.03l.07.26.19.53.22.57.05.03.44.61.1.6.33,1.32.69,1.97s.08.19.05.18l-.06.54.29.88h.22l.17.03.09.25.02.13-.26.58-.65.99-.14.06-.05.04-.09.57-.04.26v.06l.08.28.03.11.28.36-.07.69-.02.14-.15.86-.18.61-.16.26-.07.09-.88.92-.33.31-.45.38-.25.13-.22.07-.57.39-.39.38-.07.25v.04l.08.44.29,1.05.09.19-.03.35-.2.33-.21.29-.13.3v.17l.03.05.09.17.05.05.18.08.49.04,1.01.4,2.1,1.36.41.39.43.5.46.55.02.03.06.11.05.19.57.54.26.18.49.32.22.11.38.19.23.12.08.03.13.03.09.05.46.31.12.13.63.8.04.08.06,2.09-.04.18-.04.07-.46.81-.2.27-.42.3-.08.05-.08.1-.05.12-.03.14-.1.62-.02.21.28.43.07.15.09.72.4,1.51.02.07.05.06.25.28.05.05.11.05h.28s1.27.32,1.29.33l.08.06.06.07.27.37.03.05v.06l-.05,1.72-.02.12-.13.25-.22.28-.04.07v.09l.08.69.11.22.08.12.14.14.06.04.2.02.17.05.11.06.16.12.11.11.25.41v.08l-.11.88-.02.03-.09.2-.38.65.03.02.07.16-.05,1.61-.26.91-.79,1.08-.31.26-.46.47s-.1.11-.1.13v.31l.02.14.22.34.05.08.05.03.27.08.77,1.69.13.3.41.46.61.46.09.06.19.15.15.18.18.38.13,1.13-.21.72s-.24.37-.25.36l-.27.52v.04l.33.8.12.14.29.11.23.06.24.02.25-.02h.06l2.2.83.06.03.44.24.03.03.12.19.34.57v1.19l1.31,2.81.18.54v.78l-.32.72-.06.32-.53,3.86-.06.44-.23.33-.19.67s.07.06.08.09l-.06.29-.2.87-.32.98-.08.14-.41.53-.37.47-.38.74-.08.65-.12.65-.04.19-.09.06-.38.03h-.13l-.57-.09-1.47-.56-.55-.22-.03-.21.23-.65-.23-1.01-.57-1.66-.36-.34-1.43-1.2-.14.09.04.18-.02.39-1.28.18h-.18s-1.23-.45-1.23-.45l-.05-.03-.05-.05-.26-.31-.06-.05h-.23l-.1.12-.07.17-.5,1.57.02.05.98.86.06.05.12.05.94.25.18-.05.1.05.08.06.07.11.04.25-.19.67-1.42.51-3.01,1.52-.52.29-.3.36-.16.06-2.26.72-.22.02-.5.04.07.13.06.85-.02.11-.09.21-.66.45-.16.05-.31.05h-.04l-.11-.04-.15-.1-.08-.03-.51-.11h-.04l-1.87.24-.26.04-1.95,1.16.05.14.06.25v.04l-.5,1.12-.25.15-.51.66-1.04-.51-.57-.05-1.58,1.21-.91,1,.03.18-.5,1.21-.4.09-.83-.26-1.48.13-.16.06-.04.02v.05l-.13.57-.04.55.03.19.04.1v.14l-.02.1-.06.1-.54.67-.11.07-.57.35-.2-.07-.78-.51-1.12-.72s-.18-.09-.19-.09l-1.42.85-1,.56-.3.04-1.36.17-1.2.34-1.99,2.49-.57.83-.52,1.02-.06.2-.07.74.04.13.03.04.06.03.06.05.09.19-.05.5-.07.05h-.21l-.21-.03-.26-.06-.05-.03-.03-.04-.22-.35-.07-.15v-.07l.15-.06.05-.03.05-.22-.06-.44-1.56-2.24-.31-.35h-.66l-.73.03-.1.08-.13-.17-.53-.2-1.2-.36-.31-.05-.11-.08.08-.47.06-.46v-.11l-.68-.71-.18-.17-.25-.05-.02-.02-.7.31-1.1.39-3.35.46h-.06l-.08-.05-.15-.14-.11-.13-.08-.06-.1-.05-.35.08-.04.03-.04.07-.04.21v.06l-.12.11-.51.16-.16-.08-.45-.5-.18-.32-.15-.59-.47.06-.53-.31-.03-.05-.02-.15v-.57l.03-.42.12-.18h.12l.02-.03.07-.18v-.04l-.15-.22-.09-.13-.07-.06-.93-.18-.42.06-.05.02-.29.31-.06.2-.59.48-.41.19-.03-.04-.12-.04-.12.04-.06.07-.04.17v.05l.03.57.19.13.12.04.08.22s.32,2.03.32,2.05l-.54,1.85-.84.14-.25.51-.03.04h-.22l-.59-.57-.19-.27v-.03l-.03-.13.03-.16.11-.13.09-.08.15-.11.11-.04v-.16l-.35-.64-.44-.37h-.24l-.2.04-.03.03-.1.31-.31.13-.37.13h-.11l-.96-.18-.36-.39-.31-.55-.15-.15h-.09s-1.78,0-1.78,0l-2.02.83-.06.25.05.82.02.1.1.08,1.48,1.04.05.02.17.04.34.11.16.08.11.14v.37l-.05.17-.04.04-.18.13-.19.05h-.08l-.76-.19-.64-.15-.16-.03-.08.06-.02.06v.46l.05.02.04.47-.12.2-.05.02h-.07l-1.41-.5-.49-.12-.05-.12-.11-.31-.18-.77.09-.96.07-.75-.82-.19-1.07-.4-.61-.67-.08-.32-.07-.27-.24.12-.25.11-.5-.05h-.05l-.14-.21v-.16l-.11-.65-.65-1.39-.14-.14-.15-.12-1.26-.52-.39-.53-.49-.65-.14-.02-1.78.19-.49.54-.27.26-.1.05s-.06.02-.06.05v.21l-.07.44-.13.35-.25.37-.95,1.02-.43.25-.33.26-.31.19-.32.13-.41.05-.6-.25-.21-.16-.96.28-.09.43-.15.58-.04.09-.18.17.19.27.07.15.02.44-.02.3-.03.11-.12.22-.21.2-.43.39s-.19.08-.22.09h-.18l-.46.16-.03.05-.09.15-.19.34-.25.64-.02.11-.03.03-.43.03h-.21l-.82-.2-.29-.1-.32.68-.1.94.18,1.09.06.33.12.28v.22l-.11.32-1.37.25-.36.04h-.05l-.15-.12-.5-1.16-.03-.03-.08-.02-2.61-.51-3.62.99-.03.03-.14.16-.2.32-.13.67-.17.35.35.3.08-.02h.16l.14.05.04.02.08.07.04.07.1,1.05-.43.24.09.13v.06l.11.81.04.77.03.55.1.82.03.06.19.26-.25-.03h-.06v.18l.03.39.03.11.07.08,1.17,1.17h.11l.21.05.06.02.05.03.31,1.43-.44,1.16-.13.06-.37,1-.22,1.87.24.44-.05.44.02.02-.1.26s-.04.06-.02.05l.04-.06.1-.26-.02-.02.04-.43.26.1h1.38s.35-.05.35-.05l.16-.04.31-.1.15-.09.65-.83-.02-.06-.15-.22.19-.3.34-.49.8.12.63.2.4-.07.18-.22.06-.15-.14-.13.2-.89-.12-.45-.28-.47-.24-.06-.09.15.04.14v.44l-.1.02-.2.02-.17-.02-.24-.36-.4-.68-.13-.5v-.15l.03-.06.07-.03h.12l.61-.08,1.5-.07.33.14.18-.28.11-.14.05-.04.35-.04.06.02.06.05.08.07.02.05v.07l-.05.16v.16l.06.11.08.07.69.45.07.03h.06l.04-.02,1.15-1.11.33-.15.04.26-.17,1.61-.02.08-.15.07-.03.02-.1.37.14.2.39.21.15-.02.24-.11.71-.41,1.13-.39.3-.1.46.45.19.19.64,2.25.06.27.46.73h.08l.13-.03.07.02.03.07.19.6v.03l.05.29-.04,1.13v.03l-.05.1-.11.12-.04.18.22.22.05.03.41.1,1.09-.07.1-.03.58-.65.05-.06.14-.25-.17-.04-.18-.16s-.06-.09-.05-.11l.41-.39.09-.03.3.06.18.3.22.48.08.36-.11.1-.06.13v.22l.27.36h.04l.31,1.07.31.61.17.45-.02.06-.07.13-.18.08-.61.02-.08.17-.08.95v.08l.04.09.53,1.17.15.23-.26.73-.06,1.67v.05l.09.09.7.48.4.21.46.2.56,1.01.36,1.79-.11.05h-.04v.19l.04.28,1.12.48,1.64,1.19.04.1.19.53.35.36.02.03.13.17.1.5-.03,1.66s-.09,1.38-.1,1.4l-.33.85-.19.08.07.88h.06l.68.22.02.23.18.69.17.16h.06l.08.17-.09.12-.39.44-.59.19s-.27,0-.28,0l-.02-.06.03-.05.12-.08.27-.58-.02-.08-.04-.05-.09-.07-.43.02-1.28.28-.17-.05-1.09-.34-.25.65v.06l-.03.36.15.22.31.44.35.48.26,1.54v1.21l-.29.17-.18.02h-.15l-.25-.11-.13.02-.06.03-.42.22.06.14.05.15-1.28,1.12-.62.13-.31-.36-.25-.2-.89.5-.43.03.09.13.04.19-.08.46-.33.6-.04.06-.4.95.1.54.22.41.77,1.21.26.25.33,2.38.04.21.09.47.08.18v.13l.23.75.07.17.02.04.23.25.22.2.05.92v.8l-.06.65-.04.18-.15.15-.11.18-.06.5-.02.28-.18.04-.19.04-.07.04-.05.05-.04.06-.03.13v.15l.03.16.06.11.07.07.09.07.22.14-.1.38-.06.48v.2l.04.93.13.68.14.29.14.17.12.08.07.21-.36.32h-.27v1s.7,1.68.7,1.68v.16l-.18.6-.3.28h-.05l-.19-.04-.12.07-.17.2-.06.11-.11.31.02.08-.23-.95v-.03s-.1-.15-.1-.16l-.7-.14-.36.06-.04.02-.06.06-.28.35-.08.14-1.47.03-1.28.07-.02.03-1.48,1.51-.84.04-.11-.04-.07-.05-.03-.06v-.1l-.65-.05-.33.23-.71.54h-.56l-.23-.02-.09-.04-.08-.05-.38-.42-.22-.51-.04-.23-.1-.21-.18-.24-.16-.13-1.32-.42-.26-.07h-.27l-.36.06h-.06l-.14.09-.14.04h-.1l-.07-.04-.24-.13-.54-.3-.72-.49-.28-.25-.21-.21-.14-.24-.05-.14-.04-.23.03-.05v-.1l-.02-.03-.17-.15-2.05-1.35-.57-.36-.07-.03-.1-.16-.08-.06-.41-.07-.1.17-.06.13v.04l.03.06.67.69.2.16.15.11.88.6h.17s.09,0,.09,0l.45.38.69,1.46.11.43-.43.26-.37.06-.68-.28-.62-.33-.11-.06-.13-.04-.66-.15-.12-.02-.48-.05h-.08l-.09.02-.31.13-.31.17-.12.08-.13.13-.21.13-.33.16-.78.22h-.05l-.34-.2-1.23-1.07-.27.49h-.07l-.15-.05-1.03-.45-.02-.08-.27-.96.06-.23.17-.19-.31-.5-.44-.38-.62-.2.07.3-.1.17-.06.07-.25.16-.07-.03-.15-.23-.09-.93-.75-.15-.2.29-.11.33-.87.19-.4.07-.29.24-.31.4-.87,1.5-.13.54v.04l.12.2,1.06.77.06.03,1.05-.43-.04-.16.11-.07.36-.15.16-.04.69-.05h.06l.1.02.4.54v.08l-.1.24-.4.83-.24.25-.15.14-.28-.05-.07-.14.05-.19.07-.03.02-.05v-.07l-.05-.05-.2-.22s-.34-.18-.36-.18l-.31-.07-1.01.8.37.45.1.15v.03l-.14.1-.41.14-.49.13-.13.02-1.79-.15h-.1l-.04-.03-.07-.04-.44-.41-.05-.06-.04-.09v-.1l.05-.24v-.03l-.07-.06-.16-.08-.5-.13-.86-.16-.13-.02-.07.02-.05.03-1.67.97-.09.09-.04.06-.02.07-.03.23-.05.11-.12.09-.07.03-1.24.16h-.05l-1.12-.25-.9-.37-.28-.42-.04-.04-.1-.04h-.06l-.95.02-.39.38-.05.11-.28.3-.14.07-.72.26-1.03.29h-.29s-.21-.09-.21-.09l-.04-.04-.33-.35-.18-.3.07-.04.13.04.67-.27v-.09l-.04-.24-.1-.26-1.56-.41-1.17-1.53-.05-.08-.04-.12-.02-.1-.12-.76.02-.11.04-.05.42-.34.06-.07.07-.11.07-.16.04-.19v-.09l-.04-.14-.26-.78v-.33l.03-.1.25-.59.33-.77.06-.18v-.29l-.09-.26-.02-.1v-.19l.03-.14.49-1.28.49-.68.13-.18.14-.25.04-.13v-.17l-.09-.33-.07-.17-.13-.21-.57-.72-.04-.06-.02-.08v-.1l.04-1.16v-.11l.18-.85v-.13l.03-.07.42-.91.05-.09.59-.77.63-.86.05-.11.09-.29.18-.62.19-.99.02-.09.06-.13.11-.13.13-.1.45-.16.13-.08.06-.05.04-.05.05-.1.02-.08v-.08l-.19-1.05-.03-.24v-.16l.02-.19.04-.18.06-.17.57-1.4.62-1.26.08-.11.08-.18.03-.14v-1.31l-.06-.29v-.22l.04-.12.72-1.41.04-.06.06-.06.32-.14.39-.22.14-.11,1.28-1.48.2-.97.04-.09.04-.04.13-.06h.11l.67-.18.94-.66.21-.19.19-.23.12-.18.06-.15.05-.21.07-.33.12-.35.16-.45.09-.23.11-.24.24-.44.9-1.42.08-.09.08-.05.53-.17-.07-.14-.05-.08-.04-.03-.94-.11-.08.04h-.27l-.23-.03-.81-.33-.44-.2-.03-.08-.18-.22-.19-.19-1.35-.65-.87-.25-.36-.03-.26-.13-1.32-.2-.92.21-.08.02-.52.03-1.04-.06-.78-.3-1.2-.74-.25-.16-.38-.32-.56-1.09v-.21l.05-.33-.05-.38-.86-.43-.64.11-.54.1-.29.08v.22l.04.05h.05l-.14.23-1.17.94-.09.06-.2-.06-.26-.2-.39-.16-1.11-.1-.12.03-.18.07-.16.18-.06-.03-.23-.13-.13-.07-.35-.33-.26-.45-.22.68-.44.43-.18.06-.09-.03-.08-.08-.05-.13-.19-1.01-.06-.38.02-.14-.33-.52-.59-.45-.63-.23-.38-.11-1.08-.12-.39.24-.04.06.12.1.16.22.15.51v.08l-.06.11-.25.4-.46.08-1.48-.27-.31-.34-.15-.36.39-.47-.13-.36-.57-.33.02-.49v-.05l-.36-.86-.52-.45-.43-.24-.08-.08-.25-.32-.09-.13-.37-.68-.02-.05-.41-1.61-.02-.12.03-.07.19-.15.16-.04-.11-.17-.14-.16-.13-.1-1.15-.89-.63-.23-.45.09-.09.04-.18.04-.34-.02-.13-.15-.11-1.68v-.05l.09-.12.36-.4.13.08" style="fill: #141e2b; stroke: #141e2b; stroke-linejoin: round; stroke-width: .75px;"/>
    <polygon points="25.31 37.16 25.48 37.31 25.68 37.29 26.21 37.25 28.27 36.99 28.43 36.93 28.67 36.86 28.68 36.81 28.64 36.68 28.57 36.65 28.43 36.61 28.14 36.59 26.22 36.59 26.07 36.61 25.82 36.66 25.44 36.84 25.34 36.9 25.26 36.95 25.22 37.02 25.24 37.06 25.31 37.16" style="fill: #141e2b; stroke: #141e2b; stroke-linejoin: round; stroke-width: .75px;"/>
    <polygon points="21.03 38 21.12 38.02 21.15 38.02 21.31 38.04 21.32 38.02 21.47 37.97 22.73 37.77 23.68 37.75 23.88 37.74 24.05 37.75 24.45 37.77 24.47 37.77 24.49 37.83 24.53 37.75 24.53 37.7 24.52 37.65 24.48 37.61 24.25 37.56 23.41 37.56 21.55 37.75 20.99 37.79 20.89 37.83 20.88 37.86 20.89 37.9 21.03 38" style="fill: #141e2b; stroke: #141e2b; stroke-linejoin: round; stroke-width: .75px;"/>
    <polygon points="34.05 36.06 34.19 36.09 34.43 35.75 35.42 35.81 36.41 35.63 36.42 35.61 36.41 35.58 36.3 35.47 35.94 35.36 35.82 35.36 35.18 35.29 34.77 35.29 34.49 35.29 34.33 35.34 34.26 35.4 34.18 35.47 34.02 35.66 33.94 35.81 33.94 35.93 34 36.04 34.05 36.06" style="fill: #141e2b; stroke: #141e2b; stroke-linejoin: round; stroke-width: .75px;"/>
    <polygon points="17.37 40.24 18.06 40.79 18.24 40.83 18.27 40.81 18.27 40.81 18.24 40.77 18.21 40.7 18.21 40.61 18.23 40.58 18.34 40.54 18.48 40.52 18.56 40.58 18.7 40.86 18.74 40.86 18.89 40.75 18.9 40.72 18.72 40.5 18.39 40.2 19.8 39.81 19.79 39.77 19.65 39.61 19.18 39.25 19 39.18 18.85 39.16 18.78 39.16 17.37 39.59 17.29 39.61 17.27 39.65 17.22 39.72 17.2 39.83 17.25 40.06 17.37 40.24" style="fill: #141e2b; stroke: #141e2b; stroke-linejoin: round; stroke-width: .75px;"/>
    <polygon points="29.35 36.81 29.79 36.86 30.16 36.88 30.16 36.86 30.15 36.81 30.06 36.52 30.03 36.5 29.47 36.38 29.38 36.38 29.31 36.38 28.92 36.54 28.89 36.58 28.89 36.61 28.98 36.74 29.35 36.81" style="fill: #141e2b; stroke: #141e2b; stroke-linejoin: round; stroke-width: .75px;"/>
    <polygon points="30.72 36.84 30.78 36.84 31.37 36.25 31.44 36.22 32.07 36.16 32.49 36.13 32.56 36.13 33.13 36.16 33.14 36.16 33.15 36.18 33.11 36.22 33.11 36.24 33.33 36.22 33.34 36.22 33.34 36.18 33.34 36.06 33.3 36 33.2 35.95 33.1 35.91 33.03 35.9 32.77 35.86 32.05 35.83 31.14 35.83 31.02 35.84 30.85 35.93 30.8 35.97 30.61 36.25 30.59 36.31 30.58 36.52 30.62 36.75 30.72 36.84" style="fill: #141e2b; stroke: #141e2b; stroke-linejoin: round; stroke-width: .75px;"/>
    <polygon points="37.24 35.59 37.29 35.31 37.36 35.2 37.39 35.18 37.43 35.18 38.46 35.43 38.9 35.59 38.95 35.59 38.93 35.47 38.6 35.24 38.54 35.2 38.37 35.15 37.9 35.04 37.72 35.02 37.52 35.02 37.16 35.02 37.06 35.06 36.94 35.18 36.94 35.22 36.97 35.25 37.24 35.59" style="fill: #141e2b; stroke: #141e2b; stroke-linejoin: round; stroke-width: .75px;"/>
    <polygon points="39.5 36.29 39.55 36.36 39.62 36.4 39.71 36.45 39.74 36.45 39.75 36.41 39.76 36.13 39.65 35.56 39.55 35.45 39.36 35.68 39.36 35.77 39.47 36.24 39.5 36.29" style="fill: #141e2b; stroke: #141e2b; stroke-linejoin: round; stroke-width: .75px;"/>
    <polygon points="47.98 202.91 47.92 202.86 47.23 202.91 47.29 203.5 47.47 203.63 48.02 203.58 48.21 203.55 48.18 203.41 47.98 202.91" style="fill: #141e2b; stroke: #141e2b; stroke-linejoin: round; stroke-width: .75px;"/>
  </g>
</svg>