<?xml version="1.0" encoding="UTF-8"?>
<svg id="Ebene_1" xmlns="http://www.w3.org/2000/svg" version="1.1" viewBox="0 0 255 258">
  <!-- Generator: Adobe Illustrator 29.2.1, SVG Export Plug-In . SVG Version: 2.1.0 Build 116)  -->
  <defs>
    <style>
      .st0 {
        fill: #141e2b;
      }
    </style>
  </defs>
  <path id="Pfad_23" class="st0" d="M120.3,10.4c-.5,0-2.1.2-3.6.3-24,1.9-46.8,10.9-65.5,25.9-8.6,7-16.3,15.1-22.8,24.1C4.2,94.6-.6,138.8,15.8,177.1c1.4,3.3,4.3,9.2,6.1,12.3,14,24.5,36.1,43.2,62.6,53,17.5,6.5,36.3,8.7,54.8,6.7,24.3-2.7,47.2-12.8,65.6-28.9,5.4-4.8,10.4-10.1,15-15.8,33.1-41.8,34.6-100.4,3.7-143.8-16.5-23.2-40.7-39.7-68.2-46.7-6.2-1.6-12.5-2.6-18.8-3.2-2.8-.2-14.1-.5-16.3-.3h0ZM117.6,65.5c16.5.7,27.4,3.1,33.8,7.6,2.1,1.3,3.6,3.3,4.3,5.6-1,2.5-2.6,4.7-4.6,6.4-7.8,7.8-21.4,13-38.3,14.6-22.5,2.2-42.3-1.1-54.3-8.8-3.4-2.2-6.4-4.9-8.8-8.2l-1-1.4.5-1c.5-.9,1.2-1.7,1.9-2.4,4.8-4.8,13.9-8.2,27.2-10.4,13-1.8,26.1-2.5,39.2-2h0ZM206.5,129.5v50.5l-.7.5c-4.4,2.2-9.2,3.5-14.1,3.8-4.7.4-9.4.4-14.1,0-5.7-.4-11.1-2.4-15.6-5.8l-.6-.5-.2-19.1c-.2-22.2-.5-46.1-.8-64.5,0-7.1-.1-13-.1-13.1.4.2.7.4,1,.6,3.1,1.9,6.5,3.4,10,4.5,6.9,2.1,14.4,2,21.2-.5,4.2-1.5,8.3-3.5,12.1-5.9.5-.4,1.1-.7,1.6-1,0,0,.1,22.7.1,50.5h0ZM155.2,184c-2,4.1-8.8,8-17.9,10.4-12,2.8-24.2,4-36.5,3.7-10.9.4-21.9-.9-32.5-3.6-8.8-2.5-15.7-6.5-18.6-10.8l-.9-1.3v-47.1s.1-47.1.1-47.1l.4.9c.9,1.8,2.1,3.3,3.6,4.7,6.4,6.1,18.4,10,34.8,11.5,12.3,1.1,24.7.8,36.9-1,15-2.4,25.3-7.6,29.7-15,.4-.7.8-1.5,1-2.2.2-.8.3,6.1.3,47.5v48.4s-.4,1-.4,1h0Z"/>
  <path id="Pfad_24" class="st0" d="M97.5,76.9c-.4,0-1.6.1-2.8.3-3.5.2-7,1-10.3,2.2-2.1,1.1-2.2,2.4-.2,3.4,6.5,3.3,27.3,3.8,37.2.9,1.3-.2,2.5-.8,3.5-1.7.7-.7.6-1.2-.2-2-1.7-1.4-6-2.5-12.6-3.1-2.6-.2-12.6-.3-14.6-.1h0Z"/>
</svg>