<?xml version="1.0" encoding="UTF-8"?>
<svg id="Ebene_1" xmlns="http://www.w3.org/2000/svg" version="1.1" viewBox="0 0 255 258">
  <!-- Generator: Adobe Illustrator 29.2.1, SVG Export Plug-In . SVG Version: 2.1.0 Build 116)  -->
  <defs>
    <style>
      .st0 {
        fill: #141e2b;
      }
    </style>
  </defs>
  <path id="Pfad_18" class="st0" d="M5.5,134v43.6h159.4v-87.3H5.5v43.6Z"/>
  <path id="Pfad_19" class="st0" d="M174.2,121.7c-.5.3-.9.7-1.1,1.2l-.5.8v37.8c-.2,37.5-.2,37.8.2,38.6.7,1.5.8,1.5,7.8,1.5h6.1l.6-1.1c2.2-4,5.5-7.2,9.5-9.3,2-.9,4.1-1.6,6.2-1.9,3.4-.5,6.9-.3,10.2.4,5.6,1.4,10.3,5.3,12.8,10.5l.9,1.8h16l1.2-.6c1.7-.9,3.2-2.3,4.2-3.9l.5-1.1v-13.8c0,0,.1-13.8.1-13.8l-.7-2c-.9-2.6-2.2-5.1-3.8-7.4-3.6-5.6-19.4-31.2-20.2-32.8-1.9-3.1-5.2-5-8.9-5-1.2-.1-9.1-.2-21.3-.2-18.5,0-19.4,0-20,.3h0ZM212.1,127.3c3.3.3,5.3,1.1,5.9,2.2.1.3,1.2,2,2.3,3.9,5.3,9,9.1,15.6,10.2,18.3.4.9.7,1.8.8,2.8,0,1.1,0,1.2-.5,1.7-.4.3-.8.6-1.3.8-1,.3-42.6.3-43.7,0-1.2-.4-2.1-1.2-2.7-2.2-.8-1.5-.8-2.3-.7-13.9,0-11,0-11.1.5-12,.2-.5.6-1,1-1.3.6-.4.9-.4,13.5-.4s13.7,0,14.8.2h0ZM242.6,186.4c.9.9,1,1.4,1,5.6s-.1,5.1-1.2,5.5c-1.3.6-2.9.3-3.9-.7-.5-.5-.5-.6-.5-3.3-.1-5.9.6-7.8,3.2-7.6.5,0,1.1.2,1.5.5h0Z"/>
  <path id="Pfad_20" class="st0" d="M21.9,184.3c-2.6.6-4.8,2.2-6.2,4.4-1.6,4.2-.7,9,2.4,12.3.8.7,1.8,1.3,2.8,1.7.2-.2.4-.5.5-.8,2.6-4.6,6.4-8.4,11.1-10.8,6-2.9,12.9-3,19-.3,2.2,1,4.2,2.5,5.9,4.3,2.1,2,3.7,4.4,4.9,7l.6,1.4h102v-19.6h-71c-67.3,0-71,0-72.2.4h0Z"/>
  <path id="Pfad_21" class="st0" d="M38.4,192.8c-3.3.7-6.4,2.3-8.7,4.8-6.2,6.4-6,16.7.5,22.9,2,1.9,4.4,3.3,7.1,4,2.1.5,4.4.7,6.5.4,6.5-1,11.7-5.7,13.4-12.1.5-2.5.6-5.1.1-7.6-1.4-5.9-5.9-10.6-11.8-12.1-2.3-.5-4.7-.6-7.1-.3h0ZM45.3,197.5c6.1,2.2,9.4,8.8,7.4,15-1.6,4.9-6.1,8.2-11.2,8.1-1.9,0-3.7-.4-5.3-1.2-3.1-1.5-5.4-4.4-6.3-7.7-.4-1.9-.4-3.9,0-5.9,1-3.7,3.7-6.8,7.3-8.2,1.5-.6,3.1-.8,4.7-.7,1.2,0,2.4.1,3.5.5h0Z"/>
  <path id="Pfad_22" class="st0" d="M203,192.9c-1.6.3-3.1.8-4.5,1.6-2.4,1.3-4.4,3.2-5.9,5.5-1.7,2.6-2.6,5.7-2.6,8.8,0,3.1.8,6.2,2.5,8.8,2.1,3.4,5.4,5.8,9.2,6.9,1.4.4,2.9.6,4.3.5,1.4,0,2.8,0,4.1-.4,4.6-1.2,8.5-4.4,10.5-8.7,1-1.9,1.6-4.1,1.6-6.3.3-3.4-.7-6.8-2.6-9.7-3.6-5.5-10.3-8.3-16.7-6.9h0ZM210,197.5c1.7.6,3.3,1.6,4.5,2.9,1.4,1.3,2.4,3,2.9,4.8.4,1.2.6,2.4.5,3.6,0,1.2,0,2.5-.5,3.6-1,3.1-3.2,5.6-6.1,7-1.6.9-3.5,1.3-5.4,1.2-5.3,0-10-3.6-11.4-8.7-.5-2.1-.5-4.3,0-6.4,1.2-4,4.4-7.2,8.5-8.3,2.3-.5,4.6-.4,6.9.3h0Z"/>
</svg>