<?xml version="1.0" encoding="UTF-8"?>
<svg id="Ebene_1" data-name="Ebene 1" xmlns="http://www.w3.org/2000/svg" viewBox="0 0 107.06 133.31">
  <path id="Pfad_3" data-name="Pfad 3" d="M90.03,0c-.73.24-1.47.65-2.04,1.14-.73.73-22.08,28.93-22.49,29.66-1.06,1.96-.81,4.32.57,6.03.16.24,2.61,2.2,5.3,4.4,5.05,4.07,5.3,4.24,5.79,5.46.57,1.39.73,2.93.41,4.48-.49,2.36-1.3,4.64-2.53,6.68-1.79,3.42-2.12,3.83-11.65,16.38l-9.13,11.98-2.36,2.44c-4.64,4.89-7.5,7.25-9.94,8.31-.65.33-1.39.49-2.12.41-.9.08-1.87-.16-2.53-.73-.16-.16-2.12-2.44-4.24-5.05s-4.07-4.97-4.24-5.13c-1.71-1.47-4.32-1.22-5.87.41-.57.57-21.84,28.6-22.25,29.34-1.14,2.04-.9,4.56.57,6.36.33.33,8.8,6.68,10.59,7.99,4.07,2.2,8.72,3.18,13.28,2.61,14.59-1.22,31.05-11.9,47.26-30.8,11.73-13.28,21.35-28.36,28.44-44.57,3.42-7.9,5.46-16.38,6.11-25.02.49-8.15-1.14-16.38-4.32-21.19-.49-.81-8.56-10.1-9.13-10.59-.73-.57-1.55-.9-2.44-.9h-1.22l.16-.08Z" style="fill: #141e2b;"/>
</svg>