<?xml version="1.0" encoding="UTF-8"?>
<svg id="Ebene_1" xmlns="http://www.w3.org/2000/svg" version="1.1" viewBox="0 0 257.3 242">
  <!-- Generator: Adobe Illustrator 29.2.1, SVG Export Plug-In . SVG Version: 2.1.0 Build 116)  -->
  <defs>
    <style>
      .st0 {
        stroke-width: 3px;
      }

      .st0, .st1 {
        stroke: #fff;
      }

      .st0, .st1, .st2 {
        fill: #141e2b;
      }
    </style>
  </defs>
  <g id="Stift">
    <path class="st2" d="M187.7,8.7H18.4c-2.2,0-4,1.8-4,4v216.3c0,2.2,1.8,4,4,4h169.3c2.2,0,4-1.8,4-4V12.7c0-2.2-1.8-4-4-4h0ZM161.8,198.5c-.3.8-.8,1.4-1.4,2l-.9.7h-56.8c-31.2.2-57.4.1-58.2,0-.2,0-.3,0-.5,0-2.1-.5-3.4-2.6-2.9-4.7.4-1.5,1.6-2.6,3.1-3,.5,0,26.7-.1,58.2,0h57.1s.9.7.9.7c.6.5,1.1,1.2,1.4,1.9.4.8.4,1.7,0,2.5ZM43.5,89.9c.8-.3,14.5-.4,58.5-.3,55,0,57.4.1,58.3.6.2.1.3.3.5.4,1.6,1.6,1.6,4.1,0,5.7l-.9.9H43.1l-.9-1c-.3-.3-.5-.7-.7-1.1-.9-2,0-4.4,2.1-5.2h0ZM43.5,63.3c.8-.3,14.8-.4,58.1-.4,53.7,0,57.1,0,58.2.6.4.2.7.4,1,.7,1.5,1.5,1.5,4,0,5.6l-.9.9H43.1l-.9-1c-.3-.3-.5-.7-.7-1.1-.9-2,0-4.4,2.1-5.2h0ZM160.1,148.3c-.8.4-9.5.5-58.8.5h-57.9l-1.1-1.1c-1-.8-1.4-2.2-1.1-3.4,0-1.1.7-2.1,1.7-2.6,1-.6,2.2-.6,58.5-.7,45,0,57.7,0,58.3.4.6.3,1.1.8,1.4,1.3,1.2,1.9.7,4.4-1.1,5.6h0ZM160.1,174.9c-.8.4-9.5.5-58.8.5h-57.9l-1.1-1.1c-1-.8-1.4-2.2-1.1-3.4,0-1.1.7-2.1,1.7-2.6,1-.6,2.2-.6,58.5-.7,45,0,57.7.1,58.3.4.6.3,1.1.8,1.4,1.3,1.2,1.9.7,4.4-1.1,5.6h0ZM159.9,122.7c-.6.3-13.3.4-58.3.4s-57.6,0-58.6-.6c-1-.5-1.7-1.5-1.7-2.6-.3-1.3,0-2.6,1.1-3.4l1.1-1.1h57.9c49.3,0,58,0,58.8.4.5.4,1,.9,1.3,1.4,1.1,1.9.3,4.4-1.6,5.5h0ZM161,44l-1.1,1.1H43.6l-1-.8c-.5-.4-.8-.8-1.1-1.4-1-2-.1-4.4,1.9-5.3.4-.1,26.8-.2,58.7-.2h58.1c0,0,.9,1.2.9,1.2.7.7,1.1,1.7.9,2.7.2,1.1-.2,2.1-1.1,2.8h0Z"/>
    <path id="Pfad_12" class="st2" d="M231.5,117.5c-.7.5-1.2,1.2-1.6,1.9,0,.3,11.6,11.5,23.3,22.3l1,1,1.4-1.6c1.8-1.9,2-2.8,1.3-4.1-5.9-6.3-12.1-12.3-18.6-18-3.9-3.6-4.4-3.7-6.8-1.5h0Z"/>
    <path id="Pfad_13" class="st1" d="M202.1,148.8c-13.8,14.6-25,26.7-25,26.9,0,.3,24,22.9,24.3,22.9s50.2-53,50.2-53.3-24.2-23-24.4-23-11.4,12-25.1,26.6h0Z"/>
    <path id="Pfad_16" class="st0" d="M173,179.6c-1.7,1.9-2,2.7-1.5,4.1.4,1.2.3,1.6-2.4,9.2-4.9,14.1-6.9,20.2-7.1,21.2-.1.5,0,1.1.2,1.6.3.5.5.6,1.5.5.6-.1,7.4-2.9,15.1-6.1,12-5,14.1-5.8,14.8-5.5,1.4.6,2.1.4,3.7-1.3.6-.6,1.1-1.2,1.6-1.9,0-.3-23.8-22.8-24.3-23-.6.3-1,.7-1.5,1.2h0Z"/>
  </g>
</svg>