<?xml version="1.0" encoding="UTF-8"?>
<svg id="Ebene_1" xmlns="http://www.w3.org/2000/svg" version="1.1" viewBox="0 0 163.6 163.6">
  <!-- Generator: Adobe Illustrator 29.2.1, SVG Export Plug-In . SVG Version: 2.1.0 Build 116)  -->
  <defs>
    <style>
      .st0 {
        fill: #fff;
      }
    </style>
  </defs>
  <path id="office-chair-svgrepo-com" class="st0" d="M44.6,3.2c-8.6,0-15.2,7.8-14.4,16.8l5.1,56.7c0,0,0,.1,0,.2,1.3-.3,2.6-.5,4-.5h47.5c1.3,0,2.7.2,4,.5,0,0,0-.1,0-.2l5.1-56.7c.8-9-5.9-16.8-14.4-16.8h-36.9ZM8.2,54.4c-4,0-7.3,3.3-7.3,7.3,0,4,3.3,7.3,7.3,7.3h7.3c4,0,7.3-3.3,7.3-7.3,0-4-3.3-7.3-7.3-7.3h-7.3ZM110.6,54.4c-1.9,0-3.8.8-5.2,2.2-.5.4-.9.9-1.2,1.5-2,3.5-.8,8,2.7,10,1.1.6,2.4,1,3.7,1h7.3c4,0,7.3-3.3,7.3-7.3,0-4-3.3-7.3-7.3-7.3h-7.3ZM16,76.3c-.2,0-.3,0-.5,0h-7c1.3,7.9,6.8,14.4,14.3,17,0-.2,0-.4,0-.6,0-2.3.5-4.6,1.5-6.7-4.1-1.8-7.2-5.4-8.3-9.8ZM110.1,76.3c-1.1,4.4-4.2,8-8.3,9.8,1,2.1,1.5,4.4,1.5,6.7,0,.2,0,.4,0,.6,7.5-2.6,13-9.2,14.3-17h-7c-.2,0-.3,0-.5,0ZM39.2,83.7c-5,0-9.1,4.1-9.1,9.1s4.1,9.1,9.1,9.1h47.5c5,0,9.1-4.1,9.1-9.1,0-5-4.1-9.1-9.1-9.1h-47.5ZM59.4,109.3v11h-3.7v14.6h-3.7c-6.2.1-12.2,2.3-17,6.1-4.9,3.8-8.6,9.3-8.6,15.8,0,2,1.6,3.7,3.7,3.7,2,0,3.7-1.6,3.7-3.7h0c0-3.6,2.2-7.2,5.8-10.1,3.6-2.8,8-4.4,12.5-4.6h7.3v14.6c0,2,1.6,3.7,3.7,3.7,2,0,3.7-1.6,3.7-3.7h0v-14.6h7.3c4.5.2,8.9,1.8,12.5,4.6,3.6,2.8,5.8,6.4,5.8,10.1,0,2,1.6,3.7,3.7,3.7,2,0,3.7-1.6,3.7-3.7h0c0-6.5-3.7-12-8.6-15.8-4.8-3.9-10.8-6-17-6.1h-3.7v-14.6h-3.7v-11h-7.3Z"/>
</svg>